<?xml version="1.0" encoding="UTF-8" standalone="no"?>
<!-- Created with Inkscape (http://www.inkscape.org/) -->

<svg
   width="56.811687"
   height="24"
   viewBox="0 0 15.031425 6.35"
   version="1.1"
   id="svg908"
   inkscape:version="1.2.2 (b0a8486541, 2022-12-01)"
   sodipodi:docname="logo-text.svg"
   xmlns:inkscape="http://www.inkscape.org/namespaces/inkscape"
   xmlns:sodipodi="http://sodipodi.sourceforge.net/DTD/sodipodi-0.dtd"
   xmlns:xlink="http://www.w3.org/1999/xlink"
   xmlns="http://www.w3.org/2000/svg"
   xmlns:svg="http://www.w3.org/2000/svg">
  <sodipodi:namedview
     id="namedview910"
     pagecolor="#ffffff"
     bordercolor="#666666"
     borderopacity="1.0"
     inkscape:showpageshadow="2"
     inkscape:pageopacity="0.0"
     inkscape:pagecheckerboard="0"
     inkscape:deskcolor="#d1d1d1"
     inkscape:document-units="mm"
     showgrid="false"
     inkscape:zoom="5.9864116"
     inkscape:cx="18.45847"
     inkscape:cy="12.528373"
     inkscape:window-width="1920"
     inkscape:window-height="1023"
     inkscape:window-x="0"
     inkscape:window-y="0"
     inkscape:window-maximized="1"
     inkscape:current-layer="layer1" />
  <defs
     id="defs905">
    <rect
       id="SVGID_00000105414853600283290720000017360153226701225652_"
       y="0"
       width="640"
       height="483.70001"
       x="0" />
    <defs
       id="defs235">
      <rect
         id="rect1106"
         y="0"
         width="640"
         height="483.70001"
         x="0" />
    </defs>
    <clipPath
       id="clipPath762">
      <use
         xlink:href="#SVGID_00000105414853600283290720000017360153226701225652_"
         style="overflow:visible"
         id="use760" />
    </clipPath>
    <clipPath
       clipPathUnits="userSpaceOnUse"
       id="clipPath1373">
      <g
         id="g1377"
         transform="matrix(3.7795276,0,0,3.7795276,12.788315,454.7)">
        <use
           xlink:href="#SVGID_00000105414853600283290720000017360153226701225652_"
           style="overflow:visible"
           id="use1375"
           transform="matrix(0.26458333,0,0,0.26458333,-3.383575,-120.30604)" />
      </g>
    </clipPath>
    <clipPath
       clipPathUnits="userSpaceOnUse"
       id="clipPath1396">
      <g
         id="g1402"
         transform="matrix(3.7795276,0,0,3.7795276,12.788315,454.7)">
        <g
           id="g1400">
          <use
             xlink:href="#SVGID_00000105414853600283290720000017360153226701225652_"
             style="overflow:visible"
             id="use1398"
             transform="matrix(0.26458333,0,0,0.26458333,-3.383575,-120.30604)" />
        </g>
      </g>
    </clipPath>
    <clipPath
       clipPathUnits="userSpaceOnUse"
       id="clipPath1404">
      <g
         id="g1410"
         transform="matrix(3.7795276,0,0,3.7795276,12.788315,454.7)">
        <g
           id="g1408">
          <use
             xlink:href="#SVGID_00000105414853600283290720000017360153226701225652_"
             style="overflow:visible"
             id="use1406"
             transform="matrix(0.26458333,0,0,0.26458333,-3.383575,-120.30604)" />
        </g>
      </g>
    </clipPath>
  </defs>
  <g
     inkscape:label="Calque 1"
     inkscape:groupmode="layer"
     id="layer1"
     transform="translate(-2.104408e-8,-0.05291682)">
    <g
       id="g1433"
       transform="translate(0,1.3229167)">
      <g
         class="st25"
         id="g264"
         style="opacity:0.71"
         transform="matrix(0.26458333,0,0,0.26458333,-3.383575,-120.30604)"
         clip-path="url(#clipPath1373)">
        <path
           class="st26"
           d="m 19.4,463.3 c -0.2,0 0,0.1 0.3,0.2 0.1,-0.1 0.2,-0.1 0.2,-0.2 -0.1,0 -0.3,0 -0.5,0"
           id="path240"
           style="fill:#ffffff" />
        <path
           class="st26"
           d="m 20.6,463 c 0.1,-0.2 0.2,-0.4 0.3,-0.6 0,0.1 -0.1,0.3 -0.2,0.4 -0.4,0.3 0,-0.2 0,-0.3 -0.5,0.6 -0.1,0.3 -0.1,0.5"
           id="path242"
           style="fill:#ffffff" />
        <path
           class="st26"
           d="m 21,461.8 c 0,-0.4 -0.1,-0.3 -0.1,-0.1 0.1,0 0.1,0.3 0.1,0.1"
           id="path244"
           style="fill:#ffffff" />
        <path
           class="st26"
           d="m 18.5,456.3 c 0.1,0 0.3,0 0.2,0.1 0.2,-0.1 0.2,-0.1 -0.2,-0.1"
           id="path246"
           style="fill:#ffffff" />
        <path
           class="st26"
           d="m 18.8,456.4 v 0 0 0"
           id="path248"
           style="fill:#ffffff" />
        <path
           class="st26"
           d="m 22.5,462 c 0,0.4 -0.1,0.5 -0.2,0.9 l -0.2,0.1 c -0.2,0.3 0,0.2 -0.1,0.4 -0.2,0.2 -0.8,0.7 -0.9,0.7 -0.1,0 0.1,-0.1 0.1,-0.2 -0.3,0.2 -0.3,0.3 -0.8,0.5 v 0 c -1.3,0.6 -3,-0.6 -3,-2.2 0,0.1 0,0.1 -0.1,0.1 -0.1,-0.8 0.4,-1.6 1.1,-2 0.7,-0.4 1.6,-0.2 2.1,0.3 -0.3,-0.4 -0.9,-0.8 -1.5,-0.7 -0.7,0 -1.3,0.4 -1.5,0.9 -0.3,0.2 -0.4,0.8 -0.5,0.9 -0.2,1.5 0.4,2.1 1.3,2.8 0.2,0.1 0,0.1 0.1,0.2 -0.3,-0.2 -0.6,-0.4 -0.9,-0.7 0.1,0.2 0.3,0.4 0.4,0.5 -0.3,-0.1 -0.7,-0.7 -0.8,-0.8 0.5,0.9 2.1,1.6 3,1.3 -0.4,0 -0.9,0 -1.3,-0.2 -0.2,-0.1 -0.4,-0.3 -0.4,-0.3 1.1,0.4 2.3,0.3 3.3,-0.5 0.3,-0.2 0.5,-0.5 0.6,-0.5 -0.1,0.2 0,0.1 -0.1,0.2 0.3,-0.4 -0.1,-0.2 0.3,-0.7 l 0.1,0.2 c -0.1,-0.3 0.4,-0.7 0.4,-1.3 0.1,-0.2 0.1,0.2 0,0.6 0.2,-0.4 0,-0.5 0.1,-0.8 0,0.1 0.1,0.2 0.1,0.4 -0.1,-0.4 0.1,-0.7 0.2,-0.9 -0.1,0 -0.2,0.2 -0.2,-0.3 0,-0.2 0.1,-0.1 0.1,-0.2 0,0 -0.1,-0.2 -0.2,-0.5 0,-0.1 0.1,0.2 0.2,0.2 0,-0.2 -0.1,-0.4 -0.1,-0.6 -0.2,-0.4 -0.1,0.1 -0.2,-0.2 -0.2,-0.6 0.2,-0.1 0.2,-0.4 0.3,0.4 0.5,1.1 0.6,1.4 -0.1,-0.3 -0.2,-0.7 -0.3,-1 0.1,0 -0.1,-0.7 0.1,-0.2 -0.3,-1 -1.2,-2 -2.1,-2.5 0.1,0.1 0.2,0.2 0.2,0.2 -0.4,-0.3 -0.4,-0.3 -0.4,-0.4 -0.3,-0.1 -0.4,0 -0.6,0 -0.7,-0.3 -0.8,-0.3 -1.4,-0.5 v 0.1 c -0.4,-0.1 -0.5,0.1 -1,0 0,0 0.1,-0.1 0.3,-0.1 -0.4,0.1 -0.4,-0.1 -0.8,0 0.1,-0.1 0.2,-0.1 0.3,-0.2 -0.3,0 -0.8,0.2 -0.7,0 -0.6,0.2 -1.5,0.6 -2.1,1.1 V 457 c -0.3,0.3 -1.1,0.9 -1.2,1.3 H 14 c -0.1,0.2 -0.2,0.5 -0.3,0.7 -0.2,0.3 -0.3,0.1 -0.2,0.2 -0.3,0.7 -0.5,1.3 -0.7,1.7 0.1,0.2 0,0.9 0,1.6 -0.2,3.1 2.2,6.1 4.7,6.8 0.4,0.1 0.9,0.1 1.4,0.1 -0.6,-0.2 -0.6,-0.1 -1.2,-0.3 -0.4,-0.2 -0.5,-0.4 -0.8,-0.6 l 0.1,0.2 c -0.5,-0.2 -0.3,-0.2 -0.8,-0.4 l 0.1,-0.2 c -0.2,0 -0.5,-0.3 -0.5,-0.5 h -0.2 c -0.2,-0.3 -0.4,-0.5 -0.3,-0.7 l -0.1,0.1 c -0.1,-0.1 -0.9,-1.1 -0.4,-0.9 -0.1,-0.1 -0.2,-0.1 -0.3,-0.3 l 0.1,-0.1 c -0.2,-0.3 -0.4,-0.6 -0.3,-0.7 0.1,0.1 0.2,0.2 0.2,0.2 C 14,464 14,465.1 13.6,464 h 0.1 c -0.1,-0.1 -0.1,-0.2 -0.1,-0.3 v -0.3 c -0.4,-0.4 -0.1,-1.8 0,-2.5 0,-0.3 0.3,-0.6 0.5,-1.1 H 14 c 0.2,-0.4 1.3,-1.6 1.8,-1.6 0.2,-0.3 0,0 -0.1,-0.1 0.5,-0.6 0.7,-0.4 1.1,-0.5 0.4,-0.2 -0.3,0.1 -0.2,-0.1 0.7,-0.2 0.5,-0.4 1.4,-0.5 0.1,0.1 -0.2,0.1 -0.3,0.2 0.6,-0.3 1.8,-0.2 2.6,0.2 0.9,0.4 2,1.7 2,2.9 v 0 c 0,0.5 0.1,1 -0.1,1.5 l 0.3,0.2"
           id="path250"
           style="fill:#ffffff" />
        <path
           class="st26"
           d="m 16.9,463.6 v 0.2 c 0.1,0.2 0.3,0.4 0.5,0.6 -0.2,-0.3 -0.3,-0.4 -0.5,-0.8"
           id="path252"
           style="fill:#ffffff" />
        <path
           class="st26"
           d="m 17.3,463.6 c -0.1,-0.1 -0.1,-0.2 -0.2,-0.3 0,0.2 0.2,0.3 0.2,0.5 v -0.2"
           id="path254"
           style="fill:#ffffff" />
        <path
           class="st26"
           d="m 23.5,462.2 v 0 c -0.1,0.5 -0.2,0.9 -0.4,1.3 0.1,-0.3 0.3,-0.8 0.4,-1.3"
           id="path256"
           style="fill:#ffffff" />
        <path
           class="st26"
           d="m 18.6,456.2 c 0.2,-0.1 0.4,0 0.5,-0.1 -0.2,0 -0.4,0.1 -0.5,0.1 v 0"
           id="path258"
           style="fill:#ffffff" />
        <path
           class="st26"
           d="m 13.2,459 c 0,0.3 -0.2,0.4 0.1,0.2 0.2,-0.3 -0.1,0 -0.1,-0.2"
           id="path260"
           style="fill:#ffffff" />
        <path
           class="st26"
           d="m 12.9,460.5 c 0.1,-0.2 0.1,-0.3 0.1,-0.5 -0.2,0.3 -0.1,0.4 -0.1,0.5"
           id="path262"
           style="fill:#ffffff" />
      </g>
      <g
         class="st25"
         id="g280"
         style="opacity:0.71"
         transform="matrix(0.26458333,0,0,0.26458333,-3.383575,-120.30604)"
         clip-path="url(#clipPath1404)">
        <path
           class="st26"
           d="m 35.1,461.3 c 0,0 0,2.7 0,3.4 0,0.6 -0.1,1.8 -1.3,1.8 -1.2,0 -1.5,-1.4 -1.6,-2 -0.1,-0.7 -0.1,-1.3 -0.1,-1.5 0,-0.8 0,-3 1.9,-3 0.6,0 0.9,0.2 1.1,0.3 z m -4.8,2 c 0,4.7 2.5,4.7 2.9,4.7 1,0 1.7,-0.6 2,-1.6 v 1.5 c 0.3,0 0.6,0 1.2,0 0.2,0 0.3,0 0.5,0 0.1,0 0.3,0 0.4,0 -0.3,-0.5 -0.5,-1.7 -0.5,-4.4 0,-2.5 0,-6.9 0.2,-8.2 -0.6,0.3 -1.1,0.5 -2.3,0.6 0.5,0.5 0.5,0.7 0.5,3 -0.3,-0.1 -0.7,-0.2 -1.4,-0.2 -3,0.1 -3.5,2.7 -3.5,4.6"
           id="path266"
           style="fill:#ffffff" />
        <path
           class="st26"
           d="m 39.4,462.5 c 0,-1.4 0.3,-2.6 1.5,-2.6 1.3,0 1.4,1.4 1.4,2.6 z m 4.5,0.1 c 0,-2 -0.4,-3.9 -2.9,-3.9 -3.4,0 -3.4,3.8 -3.4,4.6 0,3.4 1.5,4.7 4.1,4.7 1.1,0 1.7,-0.2 2,-0.2 0,-0.6 0.1,-1 0.2,-1.5 -0.4,0.2 -0.8,0.5 -1.8,0.5 -2.6,0 -2.6,-2.4 -2.6,-3.2 H 44 l -0.1,-1"
           id="path268"
           style="fill:#ffffff" />
        <path
           class="st26"
           d="m 49.3,463.3 c 0,1.6 -0.3,3.7 -2.2,3.7 -0.3,0 -0.6,0 -0.8,-0.1 0,-0.6 0,-1.6 0,-2.8 0,-1.4 0.2,-2.2 0.3,-2.6 0.4,-1.2 1.1,-1.2 1.3,-1.2 1.2,0 1.4,1.7 1.4,3 z m -4.8,1.9 c 0,1.2 0,1.9 -0.2,2.5 0.7,0.3 1.5,0.4 2.6,0.4 0.7,0 2.5,0 3.6,-2.1 0.5,-1 0.7,-2.3 0.7,-3.3 0,-0.6 -0.1,-1.9 -0.6,-2.8 -0.5,-0.8 -1.2,-1.2 -2,-1.2 -1.6,0 -2.1,1.3 -2.3,2 0,-0.9 0,-3.8 0.2,-5.4 -1.1,0.5 -1.8,0.6 -2.5,0.7 0.7,0.3 0.7,1.4 0.7,5 l -0.2,4.2"
           id="path270"
           style="fill:#ffffff" />
        <path
           class="st26"
           d="m 54.3,468 c -0.3,0 -0.6,-0.1 -1.1,-0.1 -0.5,0 -0.9,0 -1.3,0.1 0.2,-0.3 0.2,-0.5 0.3,-1.6 0.1,-1.5 0.1,-5.5 0,-6.3 -0.1,-0.6 -0.2,-0.7 -0.5,-0.9 1.4,-0.1 1.8,-0.2 2.4,-0.5 -0.1,0.7 -0.2,1.1 -0.2,2.2 0.1,5.8 0.1,6.4 0.4,7.1"
           id="path272"
           style="fill:#ffffff" />
        <path
           class="st26"
           d="m 59.7,463.2 c 0,1.1 0,1.8 -0.3,2.4 -0.4,0.7 -0.9,1 -1.4,1 -1,0 -1.2,-0.8 -1.2,-1.7 0,-1.6 1.4,-1.7 2,-1.7 z m -4.6,2.1 c 0,1.1 0.3,2.1 1.3,2.6 0.4,0.2 0.8,0.2 1,0.2 1.5,0 2.1,-1.1 2.4,-1.9 0,0.7 0,1.2 0,1.8 0.3,0 0.6,0 1.1,0 0.3,0 0.6,0 0.8,0 -0.2,-0.3 -0.3,-0.5 -0.3,-1.1 0,-0.6 0,-1.3 0,-2.2 v -3.4 c 0,-1.3 -0.3,-2.5 -2.8,-2.5 -1.7,0 -2.6,0.5 -3.1,0.7 0.2,0.4 0.4,0.7 0.5,1.4 0.7,-0.6 1.5,-0.9 2.4,-0.9 1.4,0 1.4,0.9 1.4,2.2 -0.3,0 -0.6,0 -1,0 -2.3,0 -3.7,0.8 -3.7,3.1"
           id="path274"
           style="fill:#ffffff" />
        <path
           class="st26"
           d="m 69.4,466.3 c 0,0.6 0,1.2 0.2,1.7 -0.4,0 -0.6,-0.1 -1.3,-0.1 -0.4,0 -0.6,0 -0.9,0.1 0.1,-0.2 0.1,-0.3 0.1,-0.6 0,-0.4 0.1,-1.7 0.1,-2.1 v -1.8 c 0,-0.8 0,-1.9 0,-2.3 0,-0.3 -0.1,-1.1 -1.1,-1.1 -0.9,0 -1.3,0.7 -1.4,1.3 -0.1,0.6 -0.1,1.2 -0.1,3.7 0,2.1 0,2.3 0.2,2.9 -0.3,0 -0.6,-0.1 -1.1,-0.1 -0.4,0 -0.7,0 -1,0.1 0.1,-0.3 0.2,-0.4 0.2,-1.3 0,-0.9 0.1,-5.4 0,-6.5 -0.1,-0.7 -0.2,-0.8 -0.4,-1 1.4,-0.1 1.8,-0.3 2.2,-0.5 v 1.8 c 0.2,-0.5 0.6,-1.7 2.3,-1.7 2.1,0 2.1,1.5 2.1,2.5 l -0.1,5"
           id="path276"
           style="fill:#ffffff" />
        <path
           class="st26"
           d="m 54.5,456.3 -1.4,1.4 -1.4,-1.4 1.4,-1.4 1.4,1.4"
           id="path278"
           style="fill:#ffffff" />
      </g>
    </g>
  </g>
</svg>
